# xmcd CD database file
#
# Track frame offsets:
#	150
#	35878
#	60032
#	92292
#	143327
#	167364
#	176711
#	211355
#	246266
#
# Disc length: 3740 seconds
#
# Revision: 0
# Processed by: cddbd v1.5.2PL0 Copyright (c) Steve Scherf et al.
# Submitted via: CDex 1.51
#
DISCID=6a0e9a09
DTITLE=Brian Browne Trio - Blue Browne
DYEAR=2003
DGENRE=Jazz
TTITLE0=01-Blue Browne
TTITLE1=02-Scarborough Fair
TTITLE2=03-Drown In My Own Tears
TTITLE3=04-Poinciana
TTITLE4=05-Baubles, Bangles And Beads
TTITLE5=06-Here's Your Hat, What's Your Hurry
TTITLE6=07-How Insensitive
TTITLE7=08-Georgia
TTITLE8=09-Just The Way You Are
EXTD=YEAR: 2003
EXTT0=
EXTT1=
EXTT2=
EXTT3=
EXTT4=
EXTT5=
EXTT6=
EXTT7=
EXTT8=
PLAYORDER=
